<?xml version="1.0" encoding="UTF-8" standalone="no"?>
<!DOCTYPE svg PUBLIC "-//W3C//DTD SVG 1.1//EN" "http://www.w3.org/Graphics/SVG/1.1/DTD/svg11.dtd">
<svg width="100%" height="100%" viewBox="0 0 1440 1080" version="1.1" xmlns="http://www.w3.org/2000/svg" xmlns:xlink="http://www.w3.org/1999/xlink" xml:space="preserve" xmlns:serif="http://www.serif.com/" style="fill-rule:evenodd;clip-rule:evenodd;stroke-linejoin:round;stroke-miterlimit:2;">
    <g transform="matrix(2.77325,0,0,2.77325,-830.845,-915.486)">
        <g transform="matrix(96,0,0,96,570.321,546.332)">
            <path d="M0.016,-0.791L0.221,-0.791C0.278,-0.791 0.32,-0.787 0.347,-0.781C0.392,-0.771 0.426,-0.748 0.449,-0.714C0.469,-0.683 0.479,-0.634 0.479,-0.565C0.479,-0.521 0.472,-0.489 0.458,-0.47C0.444,-0.451 0.415,-0.437 0.372,-0.427C0.42,-0.416 0.452,-0.397 0.47,-0.371C0.486,-0.347 0.494,-0.31 0.494,-0.259L0.494,-0.186C0.494,-0.142 0.49,-0.108 0.483,-0.085C0.471,-0.049 0.449,-0.026 0.417,-0.014C0.391,-0.005 0.336,-0 0.253,-0L0.016,-0L0.016,-0.791ZM0.221,-0.655L0.221,-0.479C0.23,-0.48 0.237,-0.48 0.242,-0.48C0.267,-0.48 0.282,-0.491 0.287,-0.514C0.288,-0.519 0.289,-0.541 0.289,-0.58C0.289,-0.621 0.28,-0.645 0.264,-0.651C0.257,-0.653 0.242,-0.655 0.221,-0.655ZM0.221,-0.356L0.221,-0.135C0.251,-0.136 0.269,-0.141 0.277,-0.15C0.285,-0.159 0.289,-0.179 0.289,-0.209L0.289,-0.283C0.289,-0.315 0.285,-0.335 0.278,-0.343C0.271,-0.351 0.252,-0.355 0.221,-0.356Z" style="fill:rgb(242,181,55);fill-rule:nonzero;"/>
        </g>
        <g transform="matrix(96,0,0,96,618.883,546.332)">
            <path d="M0.365,-0.791L0.022,-0.791L0.022,-0.632L0.159,-0.632L0.159,-0.482L0.031,-0.482L0.031,-0.332L0.159,-0.332L0.159,-0.158L0.008,-0.158L0.008,-0L0.365,-0L0.365,-0.791Z" style="fill:rgb(242,181,55);fill-rule:nonzero;"/>
        </g>
        <g transform="matrix(96,0,0,96,654.977,546.332)">
            <path d="M0.472,-0.791L0.326,-0.791C0.24,-0.791 0.189,-0.79 0.174,-0.788C0.113,-0.78 0.07,-0.758 0.045,-0.722C0.024,-0.691 0.013,-0.642 0.013,-0.575C0.013,-0.519 0.018,-0.482 0.029,-0.461C0.045,-0.433 0.077,-0.417 0.126,-0.413C0.064,-0.397 0.028,-0.368 0.018,-0.326C0.014,-0.311 0.013,-0.272 0.013,-0.208L0.013,-0L0.204,-0L0.204,-0.263C0.204,-0.301 0.205,-0.324 0.209,-0.332C0.216,-0.348 0.235,-0.356 0.266,-0.356L0.266,-0L0.472,-0L0.472,-0.791ZM0.266,-0.655L0.266,-0.479C0.238,-0.479 0.221,-0.484 0.213,-0.494C0.207,-0.502 0.204,-0.521 0.204,-0.551L0.204,-0.594C0.204,-0.618 0.208,-0.635 0.217,-0.643C0.225,-0.651 0.242,-0.655 0.266,-0.655Z" style="fill:rgb(242,181,55);fill-rule:nonzero;"/>
        </g>
        <g transform="matrix(96,0,0,96,701.899,546.332)">
            <path d="M0.216,-0.791L0.216,-0.158L0.341,-0.158L0.341,-0L0.011,-0L0.011,-0.791L0.216,-0.791Z" style="fill:rgb(242,181,55);fill-rule:nonzero;"/>
        </g>
        <g transform="matrix(96,0,0,96,735.93,546.332)">
            <rect x="0.009" y="-0.791" width="0.206" height="0.791" style="fill:rgb(242,181,55);fill-rule:nonzero;"/>
        </g>
        <g transform="matrix(96,0,0,96,757.821,546.332)">
            <path d="M0.009,-0.791L0.009,-0L0.189,-0L0.296,-0.359L0.296,-0L0.468,-0L0.468,-0.791L0.296,-0.791L0.181,-0.435L0.181,-0.791L0.009,-0.791Z" style="fill:rgb(242,181,55);fill-rule:nonzero;"/>
        </g>
    </g>
    <g transform="matrix(2.24583,0,0,2.24583,-406.506,-677.972)">
        <g transform="matrix(96,0,0,96,516.227,450.332)">
            <path d="M0.644,-0.791L0.644,-0L0.464,-0L0.464,-0.534L0.393,-0L0.265,-0L0.189,-0.521L0.189,-0L0.01,-0L0.01,-0.791L0.276,-0.791C0.282,-0.755 0.29,-0.699 0.301,-0.623L0.329,-0.421L0.376,-0.791L0.644,-0.791Z" style="fill:rgb(242,181,55);fill-rule:nonzero;"/>
        </g>
        <g transform="matrix(96,0,0,96,579.321,450.332)">
            <path d="M0.396,-0.791L0.514,-0L0.303,-0L0.293,-0.142L0.219,-0.142L0.207,-0L-0.006,-0L0.099,-0.791L0.396,-0.791ZM0.287,-0.282C0.277,-0.372 0.266,-0.482 0.256,-0.614C0.235,-0.463 0.222,-0.352 0.217,-0.282L0.287,-0.282Z" style="fill:rgb(242,181,55);fill-rule:nonzero;"/>
        </g>
        <g transform="matrix(96,0,0,96,622.305,450.332)">
            <path d="M0.479,-0.791L0.329,-0.286L0.329,-0L0.139,-0L0.139,-0.286L-0.006,-0.791L0.183,-0.791C0.213,-0.637 0.229,-0.533 0.233,-0.479C0.244,-0.564 0.263,-0.667 0.29,-0.791L0.479,-0.791Z" style="fill:rgb(242,181,55);fill-rule:nonzero;"/>
        </g>
        <g transform="matrix(96,0,0,96,667.727,450.332)">
            <path d="M0.012,-0.791L0.166,-0.791C0.24,-0.791 0.289,-0.789 0.313,-0.786C0.377,-0.779 0.422,-0.761 0.447,-0.732C0.469,-0.707 0.482,-0.672 0.486,-0.627C0.487,-0.616 0.488,-0.578 0.488,-0.512L0.488,-0.235C0.488,-0.18 0.487,-0.145 0.485,-0.129C0.479,-0.085 0.465,-0.055 0.443,-0.037C0.413,-0.012 0.356,-0 0.271,-0L0.012,-0L0.012,-0.791ZM0.217,-0.655L0.217,-0.135C0.251,-0.135 0.272,-0.146 0.279,-0.169C0.281,-0.176 0.282,-0.203 0.282,-0.25L0.282,-0.557C0.282,-0.588 0.282,-0.604 0.282,-0.606C0.28,-0.628 0.274,-0.642 0.263,-0.648C0.255,-0.653 0.24,-0.655 0.217,-0.655Z" style="fill:rgb(242,181,55);fill-rule:nonzero;"/>
        </g>
        <g transform="matrix(96,0,0,96,715.587,450.332)">
            <path d="M0.396,-0.791L0.514,-0L0.303,-0L0.293,-0.142L0.219,-0.142L0.207,-0L-0.006,-0L0.099,-0.791L0.396,-0.791ZM0.287,-0.282C0.277,-0.372 0.266,-0.482 0.256,-0.614C0.235,-0.463 0.222,-0.352 0.217,-0.282L0.287,-0.282Z" style="fill:rgb(242,181,55);fill-rule:nonzero;"/>
        </g>
        <g transform="matrix(96,0,0,96,758.571,450.332)">
            <path d="M0.479,-0.791L0.329,-0.286L0.329,-0L0.139,-0L0.139,-0.286L-0.006,-0.791L0.183,-0.791C0.213,-0.637 0.229,-0.533 0.233,-0.479C0.244,-0.564 0.263,-0.667 0.29,-0.791L0.479,-0.791Z" style="fill:rgb(242,181,55);fill-rule:nonzero;"/>
        </g>
    </g>
</svg>
